Coordinates
version=1
nRows=15
nColumns=34
inDegrees=yes

Units are S.I. units (second, meters, Newtons, ...)
If the header above contains a line with 'inDegrees', this indicates whether rotational values are in degrees (yes) or radians (no).

endheader
time	pelvis_tilt	pelvis_list	pelvis_rotation	pelvis_tx	pelvis_ty	pelvis_tz	hip_flexion_r	hip_adduction_r	hip_rotation_r	knee_angle_r	ankle_angle_r	subtalar_angle_r	mtp_angle_r	hip_flexion_l	hip_adduction_l	hip_rotation_l	knee_angle_l	ankle_angle_l	subtalar_angle_l	mtp_angle_l	lumbar_extension	lumbar_bending	lumbar_rotation	arm_flex_r	arm_add_r	arm_rot_r	elbow_flex_r	pro_sup_r	arm_flex_l	arm_add_l	arm_rot_l	elbow_flex_l	pro_sup_l
      0.00000000	      2.66912355	     -0.80158463	      0.85783818	      0.44213615	      0.90777979	     -0.00762794	     -2.45718787	      3.98535496	      0.35452076	      7.81315311	      8.92608759	     -5.54087592	      0.00000000	     -0.22614445	    -10.09560001	      2.36889797	     10.67268093	      9.42709310	     -1.11246069	      0.00000000	     -6.46483378	      4.09187876	     -5.58247898	     77.71406446	      2.52342534	     56.42242981	    125.25054127	    107.85925204	     84.57042119	     -3.57951384	     70.50475517	    137.29018066	     96.34300705
      0.01666670	      0.92574748	     -0.86805702	      0.75215905	      0.44348877	      0.90577857	     -0.00494769	     -0.23608918	      4.37415390	      1.66233010	      8.12290587	     11.23640132	     -6.81420792	      0.00000000	      2.39523117	     -9.92136614	      4.85354029	     11.79275836	      8.73821144	     -0.99168502	      0.00000000	     -5.23910289	      4.60261951	     -7.41182408	     82.40926354	      1.41395727	     55.19835092	    127.43183081	    107.29402402	     87.34203518	     -7.16204239	     63.81322662	    138.49164124	     96.39311470
      0.03333330	      0.46445836	     -0.96795308	      0.39882259	      0.44406309	      0.90518232	     -0.00126314	     -0.03071546	      4.67671000	      1.21146555	      7.58923870	     10.47592802	     -7.20955075	      0.00000000	      3.84136902	    -10.27453957	      5.31869949	     13.41366022	      8.15821290	     -1.03838487	      0.00000000	     -4.60072815	      4.90717673	     -7.25073360	     83.72468463	      1.77801018	     55.75324400	    127.78475361	    107.14583583	     87.75618584	     -8.05847883	     64.12974410	    136.91960453	     96.48181204
      0.05000000	      0.13001459	     -0.88669775	      0.63699838	      0.44231816	      0.90588770	      0.00180364	      0.28491089	      4.82433663	      1.21287928	      7.46084364	     10.46361179	     -8.08827372	      0.00000000	      5.42232240	    -10.22825059	      6.76355562	     15.40945228	      8.24191283	     -2.51823073	      0.00000000	     -4.20701279	      4.83274638	     -6.54533571	     83.52335150	      1.60642717	     59.17442455	    128.24661883	    106.95637849	     88.06291619	     -7.42293850	     66.91084968	    135.48021290	     96.76843705
      0.06666670	      0.01067740	     -0.89012971	      0.66935141	      0.44327048	      0.90740096	      0.00377673	      0.37596658	      5.02807098	      1.17864673	      7.45114213	     10.24013628	     -8.43106732	      0.00000000	      6.73282439	    -10.33570048	      7.08172140	     17.36947567	      7.67056311	     -3.92471862	      0.00000000	     -4.01157181	      4.82209632	     -6.04001543	     82.68037858	      1.22264803	     60.63616782	    128.57710758	    106.69710627	     87.73311409	     -6.74367529	     68.88253512	    135.40564509	     97.03152554
      0.08333330	      0.33778977	     -0.84597915	      0.82199360	      0.44243230	      0.90741805	      0.00693140	      0.01313100	      5.20301664	      1.05588901	      7.41896185	     10.44013126	     -8.64257050	      0.00000000	      7.80855047	    -10.32566444	      7.21544996	     19.64540511	      7.87941995	     -4.56654802	      0.00000000	     -4.12649954	      4.83701154	     -5.39471472	     82.09051824	      0.83321548	     61.49062369	    127.94807227	    106.59802217	     87.37708602	     -5.72130701	     69.30060050	    136.21357969	     97.13276693
      0.10000000	      0.39606771	     -0.89160842	      0.96275200	      0.44298398	      0.90458767	      0.00974244	      0.08681795	      5.45477959	      0.97072706	      7.57171132	     10.79921854	     -8.84382873	      0.00000000	      9.46344545	    -10.40198449	      7.06340424	     22.48935977	      8.28819119	     -5.39195218	      0.00000000	     -4.23103896	      5.00199457	     -4.90513691	     82.63720847	      0.95978880	     62.04037425	    127.34521115	    106.32610061	     87.58304481	     -5.11706992	     69.98522027	    135.81456625	     97.28340027
      0.11666670	      0.67279334	     -0.78639575	      1.06498626	      0.44022749	      0.90821785	      0.01180739	     -0.12604620	      5.52526560	      0.72916691	      7.55224236	     10.83219114	     -8.99513544	      0.00000000	     10.74194923	    -10.29197330	      6.89688545	     24.65222163	      8.08634510	     -5.58087170	      0.00000000	     -4.47216113	      4.98512626	     -4.44093718	     82.49841132	      0.74837057	     62.22896882	    126.66433544	    106.17845826	     87.42267224	     -4.63160200	     69.97362683	    136.13363974	     97.30942224
      0.13333330	      1.03415070	     -0.44614408	      1.05732411	      0.44113801	      0.90808903	      0.01350668	     -0.53473294	      5.31623297	      0.73553252	      7.36495546	     10.98225074	     -9.01494822	      0.00000000	     11.64289538	     -9.93776023	      6.39327736	     26.32991277	      8.00122374	     -5.77063485	      0.00000000	     -4.80027104	      4.71121211	     -4.24141255	     82.42360060	      0.81522802	     62.28905635	    126.57962870	    106.15305823	     87.24486177	     -4.61285641	     69.95276872	    136.20233556	     97.31069893
      0.15000000	      0.98478742	     -0.50097381	      1.10567626	      0.44123103	      0.90474548	      0.01538937	     -0.28063026	      5.51039744	      0.52695276	      7.66402655	     11.33741443	     -8.93908753	      0.00000000	     13.28772401	     -9.95731676	      6.02871778	     28.08626635	      8.61393424	     -5.29068260	      0.00000000	     -4.61571711	      4.88358607	     -3.84131449	     82.87040686	      0.74467445	     62.16424808	    126.18842973	    105.64922032	     86.97508621	     -4.26828701	     68.66733028	    136.69839179	     97.23628748
      0.16666670	      1.24569788	     -0.22965918	      1.08305160	      0.43929078	      0.90396691	      0.01616318	     -0.40982370	      5.33515311	      0.54995276	      7.81947044	     11.69816317	     -9.00048409	      0.00000000	     14.32102961	     -9.56831920	      5.51465189	     28.94330838	      8.70722560	     -5.20699662	      0.00000000	     -4.83659648	      4.58813774	     -3.71879735	     83.31503104	      0.72821469	     61.90620120	    125.94837369	    105.51492075	     87.14305546	     -4.36068412	     68.49700007	    136.64558019	     97.22450029
      0.18333330	      1.45870720	     -0.03021763	      1.05436822	      0.43819869	      0.90594843	      0.01838044	     -0.65077052	      5.22567934	      0.58320007	      7.71772666	     11.78069325	     -8.98364871	      0.00000000	     15.16693935	     -9.19915447	      5.32747277	     29.18774078	      8.53838664	     -4.99680805	      0.00000000	     -5.14241580	      4.46717097	     -3.43855678	     83.30620707	      0.72629954	     61.92153530	    125.87641633	    105.47565765	     86.99311404	     -4.61955580	     68.56174138	    136.51906671	     97.22291120
      0.20000000	      1.41239709	      0.20233004	      0.79321142	      0.43747335	      0.90699833	      0.02020637	     -0.51524076	      5.06593219	      0.72195083	      7.66606324	     12.07507526	     -8.84187372	      0.00000000	     16.00499482	     -9.02909530	      4.41522606	     28.65106078	      8.74026061	     -3.65507142	      0.00000000	     -4.92044447	      4.21485409	     -3.19169650	     82.94305477	      0.41590393	     62.46487542	    125.59207759	    105.07929411	     86.37402940	     -4.87973734	     69.12771403	    135.81603553	     97.19135162
      0.21666670	      1.46856205	      0.42568476	      0.82744021	      0.43821854	      0.90834446	      0.02070530	     -0.74643446	      4.88902261	      0.84503273	      7.28635770	     11.99781074	     -8.72520433	      0.00000000	     16.65954379	     -8.74718985	      4.16760101	     27.76879209	      8.39750211	     -3.20795304	      0.00000000	     -4.96738264	      3.98222969	     -3.23687876	     82.84572221	      0.14774207	     62.50683508	    125.43217015	    104.87085101	     86.02370664	     -5.27472230	     69.48462571	    135.36580814	     97.17564434
      0.23333330	      1.41045059	      0.67839822	      0.84077600	      0.43747252	      0.90865887	      0.02222470	     -0.83976497	      4.70705454	      0.86360814	      6.84699595	     11.96218059	     -8.66433071	      0.00000000	     17.24007443	     -8.46654974	      4.00679504	     26.19799546	      7.99197586	     -2.76654407	      0.00000000	     -4.94588739	      3.70724578	     -3.23235923	     82.77279497	      0.04044002	     62.59119739	    125.04619799	    104.68450901	     86.05153063	     -5.48269680	     69.66058382	    134.85730188	     97.15107661
